<svg width="120" height="27" viewBox="0 0 120 27" fill="none" xmlns="http://www.w3.org/2000/svg">
<g id="Group 3">
<g id="Group">
<path id="Vector" d="M57.3019 14.3434C57.3019 16.9048 55.277 18.9765 52.7818 18.9765C50.2866 18.9765 48.2618 16.901 48.2618 14.3434V5.48785H45.399V14.3434C45.399 18.5207 48.7064 21.9108 52.7818 21.9108C56.8572 21.9108 60.1609 18.5245 60.1609 14.3434V5.48785H57.3019V14.3434Z" fill="#0040FF"/>
<path id="Vector_2" d="M65.3131 5.48785H62.4504V21.9108H65.3131V5.48785Z" fill="#0040FF"/>
<path id="Vector_3" d="M102.175 5.48785H99.3127V21.9108H102.175V5.48785Z" fill="#0040FF"/>
<path id="Vector_4" d="M116.368 5.48785V17.1534L107.324 5.55942H104.465V21.9334H107.324V10.3356L116.368 21.9334H119.227V5.51045L116.368 5.48785Z" fill="#0040FF"/>
<path id="Vector_5" d="M41.8639 13.2624C42.4739 12.4488 42.8377 11.4318 42.8377 10.3244C42.8377 7.65376 40.7247 5.48413 38.1192 5.48413H28.9137V21.907H38.9571C41.5625 21.907 43.6792 19.7412 43.6792 17.0706C43.6792 15.5224 42.9663 14.1476 41.8639 13.2624ZM38.9571 18.9765H31.7764V8.41841H38.1192C39.1482 8.41841 39.9787 9.27345 39.9787 10.3244C39.9787 11.3753 39.1482 12.2303 38.1192 12.2303H34.0438V15.1646H38.9571C39.9823 15.1646 40.8165 16.0196 40.8165 17.0706C40.8165 18.1215 39.9823 18.9765 38.9571 18.9765Z" fill="#0040FF"/>
<path id="Vector_6" d="M88.9901 5.51045L82.2615 5.48785V8.44473H88.9901C91.8271 8.44473 94.1423 10.814 94.1423 13.7219C94.1423 16.6298 91.8308 18.9991 88.9901 18.9991H85.0985V10.7688H82.2615V21.907H89.0158C91.2134 21.907 93.2052 20.9917 94.6457 19.4925C94.8074 19.3268 94.9654 19.1648 95.1051 18.9991C96.2957 17.5677 97.005 15.7145 97.005 13.6955C97.005 9.16794 93.411 5.50669 88.9938 5.50669L88.9901 5.51045Z" fill="#0040FF"/>
<path id="Vector_7" d="M72.1189 18.9766C71.2186 18.9766 70.4873 18.227 70.4873 17.3042V5.51056H67.6025V17.3042C67.6025 19.858 69.6237 21.9297 72.1189 21.9297H79.9721V18.9728H72.1189V18.9766Z" fill="#0040FF"/>
</g>
<g id="Group_2">
<path id="Vector_8" d="M17.1579 2.08276C16.6618 1.73999 16.1179 1.46502 15.5409 1.26538L0 17.1911V19.6357C0.0404233 19.6168 0.0771718 19.5905 0.106571 19.5566L17.1579 2.08276Z" fill="#668CFF"/>
<path id="Vector_9" d="M3.70423 11.8951L3.10156 11.2773C2.93619 11.1078 2.66425 11.1078 2.49888 11.2773L0.00366211 13.8349V16.3134L3.70791 12.5166C3.87328 12.3471 3.87328 12.0683 3.70791 11.8951H3.70423Z" fill="#668CFF"/>
<path id="Vector_10" d="M9.65015 11.2773L10.2528 11.895C10.4182 12.0645 10.6901 12.0645 10.8555 11.895L18.8299 3.72503C18.4882 3.25419 18.0913 2.82855 17.6503 2.45941L9.65015 10.6596C9.48478 10.8291 9.48478 11.1078 9.65015 11.2773Z" fill="#668CFF"/>
<path id="Vector_11" d="M9.82287 12.3395L9.22019 11.7218C9.05483 11.5523 8.78289 11.5523 8.61752 11.7218L0 20.551V23.0295L9.82287 12.961C9.98824 12.7915 9.98824 12.5128 9.82287 12.3433V12.3395Z" fill="#668CFF"/>
<path id="Vector_12" d="M14.1739 11.2359L13.5712 10.6182C13.4058 10.4487 13.1302 10.4487 12.9649 10.6182L0 23.9071V26.0843C0 26.1709 0.0257239 26.25 0.0661473 26.3178L0.146994 26.235L14.1739 11.8536C14.3393 11.6841 14.3393 11.4054 14.1739 11.2359Z" fill="#668CFF"/>
<path id="Vector_13" d="M14.0012 10.1736L14.6039 10.7914C14.7693 10.9609 15.0449 10.9609 15.2102 10.7914L19.9067 5.97752C19.7376 5.36355 19.4951 4.78347 19.1791 4.2486L14.0049 9.55214C13.8395 9.72164 13.8395 10.0004 14.0049 10.1699L14.0012 10.1736Z" fill="#668CFF"/>
<path id="Vector_14" d="M8.83427 20.0651L8.23159 19.4473C8.06622 19.2778 7.79061 19.2778 7.62892 19.4473L0.723877 26.5212H3.14193L8.83427 20.6866C8.99964 20.5171 8.99964 20.2383 8.83427 20.0651Z" fill="#668CFF"/>
</g>
<g id="Group_3">
<path id="Vector_15" d="M16.739 15.319L16.1363 14.7013C15.9709 14.5318 15.699 14.5318 15.5336 14.7013L4.00195 26.5212H6.42L16.7427 15.9405C16.908 15.771 16.908 15.4923 16.7427 15.3228L16.739 15.319Z" fill="#0040FF"/>
<path id="Vector_16" d="M8.66165 19.0067L9.26432 19.6244C9.42969 19.7939 9.70163 19.7939 9.867 19.6244L20.0243 9.20942C20.1088 8.77248 20.1529 8.31671 20.1529 7.8534C20.1529 7.4579 20.1198 7.07369 20.0574 6.69702L8.6543 18.3852C8.48893 18.5547 8.48893 18.8334 8.6543 19.0067H8.66165Z" fill="#0040FF"/>
<path id="Vector_17" d="M19.6642 10.4675L16.5663 13.6429C16.4009 13.8124 16.4009 14.0911 16.5663 14.2606L17.169 14.8784C17.3343 15.0479 17.6063 15.0479 17.7716 14.8784L18.0803 14.562C17.7606 14.2455 17.4078 13.9593 17.033 13.7107C18.2053 12.9385 19.1277 11.8085 19.6568 10.4675H19.6642Z" fill="#0040FF"/>
<path id="Vector_18" d="M18.5029 15.014L7.27625 26.5213H9.6943L19.4657 16.5056C19.2085 15.967 18.8814 15.466 18.5029 15.014Z" fill="#0040FF"/>
<path id="Vector_19" d="M16.4634 22.3214L15.8607 21.7037C15.6953 21.5342 15.4234 21.5342 15.2543 21.7037L10.5542 26.5251H12.9722L16.467 22.9429C16.6324 22.7734 16.6324 22.4947 16.467 22.3252L16.4634 22.3214Z" fill="#0040FF"/>
<path id="Vector_20" d="M16.287 20.6415C16.1216 20.811 16.1216 21.0897 16.287 21.263L16.8897 21.8807C17.055 22.0502 17.327 22.0502 17.496 21.8807L20.1456 19.1649C20.1052 18.4492 19.9618 17.7599 19.7266 17.1196L16.287 20.6415Z" fill="#0040FF"/>
<path id="Vector_21" d="M15.2102 25.7227L15.6071 26.1295C18.1097 25.2331 19.9434 22.8751 20.1345 20.05L15.2102 25.1012C15.0448 25.2707 15.0448 25.5495 15.2102 25.719V25.7227Z" fill="#0040FF"/>
<path id="Vector_22" d="M14.1775 26.1633L13.8468 26.5017C14.2216 26.4754 14.5891 26.419 14.9456 26.3287L14.7802 26.1595C14.6148 25.9903 14.3429 25.9903 14.1775 26.1595V26.1633Z" fill="#0040FF"/>
</g>
<g id="Group_4">
<path id="Vector_23" d="M2.79288 0.900024L0 3.76273V6.23747L5.20726 0.900024H2.79288Z" fill="#CCD9FF"/>
<path id="Vector_24" d="M8.48523 0.900024H6.06718L0 7.11888V9.58608C0 9.58608 0.0293988 9.56348 0.0404233 9.55218L8.48523 0.900024Z" fill="#CCD9FF"/>
<path id="Vector_25" d="M6.91239 5.24682L6.30972 4.62908C6.14435 4.45958 5.86873 4.45958 5.70704 4.62908L0 10.475V12.9535L6.91239 5.86833C7.07776 5.69883 7.07776 5.42009 6.91239 5.24682Z" fill="#CCD9FF"/>
<path id="Vector_26" d="M6.73963 4.18837L7.3423 4.80611C7.50767 4.97562 7.77961 4.97562 7.94498 4.80611L11.7595 0.900024H9.34142L6.73963 3.57063C6.57426 3.74013 6.57426 4.01887 6.73963 4.18837Z" fill="#CCD9FF"/>
<path id="Vector_27" d="M3.5315 10.8366L4.13417 11.4544C4.29954 11.6239 4.57148 11.6239 4.73685 11.4544L14.8684 1.07329C14.387 0.960292 13.8835 0.900024 13.3691 0.900024H12.6194L3.5315 10.2151C3.36613 10.3846 3.36613 10.6634 3.5315 10.8329V10.8366Z" fill="#CCD9FF"/>
<path id="Vector_28" d="M0.426282 0.900024C0.191092 0.900024 0 1.09589 0 1.33696V2.88132L1.93297 0.900024H0.426282Z" fill="#CCD9FF"/>
</g>
</g>
</svg>
